<svg id="Layer_1" data-name="Layer 1" xmlns="http://www.w3.org/2000/svg" viewBox="0 0 400 435.53577"><defs><style>.cls-1{fill:#fff;}</style></defs><path class="cls-1" d="M625.71429,541.196v14.85749q0,37.13837-20,54.85717-20.00885,17.7053-49.14282,20-17.71875,1.71425-29.71429,2-12,.28125-26.85712.28571-14.86605,0-27.14288-.28571-12.29462-.29462-29.42859-2-29.14279-2.866-49.14282-20.28564-20.009-17.4375-20.00006-54.57147V541.196H300v14.85761q.00009,74.85268,35.42865,114.57141,35.424,39.70982,96,44.28564,15.42856,1.13847,33.71429,2,18.28125.85722,34.85712.85718,16.567-.00009,34.85718-.85718,18.28125-.85712,33.71423-2,60.5625-5.14287,96-44.57147Q699.99561,630.91068,700,556.05353V541.196Z" transform="translate(-300 -282.23212)"/><path class="cls-1" d="M700,515.23755V409.72345q0-61.16849-29.71429-94.33215-29.70538-33.15024-83.42859-33.15918-35.424,0-60,16.00787-24.5625,16.0124-33.71424,45.1651A84.47689,84.47689,0,0,0,459.71429,306.244q-21.99105-13.14488-50.57141-13.14935-52.567,0-80.85717,33.44506Q300,359.98472,300,421.15765v94.0799ZM537.14288,409.72345q0-21.72053,12.85712-33.15918,12.85712-11.42972,32.85712-11.4342,21.14739,0,32,11.4342,10.86163,11.44317,10.85717,33.15918v65.175H537.14288Zm-162.85717,11.4342q0-21.72051,11.14288-33.73089,11.1428-12.00587,31.71429-12.00586,20.00886,0,32.85712,12.00586,12.85712,12.006,12.85712,33.73089v53.74079H374.28571Z" transform="translate(-300 -282.23212)"/></svg>